<svg fill="none" xmlns="http://www.w3.org/2000/svg" viewBox="0 0 24 24"><path d="M6.75 21.5V20M17.25 21.5V20" stroke="currentcolor"></path><path clip-rule="evenodd" d="M18.144 19.75H5.856c-.746 0-1.356-.66-1.356-1.466L5.585 6.47c0-1.771 1.34-3.22 2.98-3.22h6.87c1.64 0 2.98 1.449 2.98 3.22L19.5 18.284c0 .806-.61 1.466-1.356 1.466Z" stroke="currentcolor"></path><path d="M10 9a1 1 0 1 0 0-2 1 1 0 0 0 0 2ZM10 13a1 1 0 1 0 0-2 1 1 0 0 0 0 2ZM14 9a1 1 0 1 0 0-2 1 1 0 0 0 0 2ZM14 13a1 1 0 1 0 0-2 1 1 0 0 0 0 2Z" fill="currentcolor"></path><path d="M4.5 15.5h15M2.5 12v4.5H5M19 16.5h2.5V12" stroke="currentcolor"></path></svg>